# xmcd
#
# Track frame offsets:
#	150
#	13962
#	26215
#	42580
#	56680
#	72080
#	85810
#	98880
#	110512
#	124250
#	136865
#	152832
#	165457
#	180945
#	195732
#	209775
#	227659
#	239134
#	254987
#	268485
#	282300
#	295165
#	306142
#	324175
#	336832
#
# Disc length: 4621 seconds
#
# Revision: 0
# Processed by: cddbd v1.4PL0 Copyright (c) Steve Scherf et al.
# Submitted via: dBpowerAMP V4.0
#
DISCID=86120b19
DTITLE=Kim og Hallo - 10 år med Kim og Hallo
DYEAR=2000
DGENRE=
TTITLE0=Jeg har en ven
TTITLE1=Mona Lisa
TTITLE2=Frimærkesprog
TTITLE3=Drømmeland
TTITLE4=Hvorfor spør' du altid
TTITLE5=Dig vil jeg elske al min tid
TTITLE6=Det er weekend
TTITLE7=Glimt i dit øje
TTITLE8=Wiggen
TTITLE9=I morgen vil jeg ringe
TTITLE10=Hva' har du tænkt dig
TTITLE11=Over sø og land
TTITLE12=Puslespil
TTITLE13=Tak for hver en dag
TTITLE14=Vindens hvisken
TTITLE15=Du ligner din mor
TTITLE16=Det' sommer, det' sommer
TTITLE17=Endnu en sang
TTITLE18=Samme tid på søndag
TTITLE19=Ta' og luk mig ind
TTITLE20=Dag og nat
TTITLE21=En dans med dig
TTITLE22=Ring til mig
TTITLE23=I mange, mange tusinde år
TTITLE24=De nære ting
EXTD=
EXTT0=
EXTT1=
EXTT2=
EXTT3=
EXTT4=
EXTT5=
EXTT6=
EXTT7=
EXTT8=
EXTT9=
EXTT10=
EXTT11=
EXTT12=
EXTT13=
EXTT14=
EXTT15=
EXTT16=
EXTT17=
EXTT18=
EXTT19=
EXTT20=
EXTT21=
EXTT22=
EXTT23=
EXTT24=
PLAYORDER=
